# Blender 4.1.0
# www.blender.org
mtllib cone_tier_1.mtl
o cone_tier_1
v 0.001089 0.295279 -0.018931
v 0.016919 0.296827 -0.009752
v 0.016885 0.297672 0.008501
v 0.001106 0.297603 0.017639
v -0.014700 0.296243 0.008513
v -0.014729 0.294629 -0.009741
v 0.001110 0.226803 -0.034578
v 0.030146 0.226855 -0.017515
v 0.030030 0.226884 0.016099
v 0.000972 0.226873 0.033631
v -0.028142 0.226853 0.016136
v -0.027577 0.226784 -0.017355
v 0.000944 0.151968 -0.059088
v 0.049760 0.151837 -0.029200
v 0.049968 0.151853 0.027657
v 0.000578 0.152033 0.058365
v -0.048714 0.151946 0.027634
v -0.047704 0.151928 -0.029403
v 0.001605 0.074072 -0.096976
v 0.084488 0.074209 -0.048855
v 0.078211 0.074533 0.044744
v 0.000960 0.074137 0.095895
v -0.075880 0.074611 0.043701
v -0.078129 0.074423 -0.047101
v 0.007870 0.005760 -0.144096
v 0.128968 0.001837 -0.074457
v 0.113126 0.007669 0.074395
v 0.001109 0.001746 0.152055
v -0.126046 0.001804 0.074357
v -0.126889 0.002100 -0.074186
v 0.009588 0.296161 -0.015304
v 0.017873 0.297299 -0.000614
v 0.009455 0.297679 0.013863
v -0.007301 0.297035 0.013952
v -0.015987 0.295293 -0.000613
v -0.007475 0.294799 -0.015481
v 0.017282 0.226827 -0.028968
v 0.033690 0.226876 -0.000836
v 0.017253 0.226881 0.027926
v -0.015534 0.226868 0.027773
v -0.031376 0.226818 -0.000837
v -0.014996 0.226788 -0.028958
v -0.020936 0.263910 0.012096
v -0.020547 0.263457 -0.013149
v 0.023258 0.264152 0.012182
v 0.001088 0.264154 0.025255
v 0.001119 0.263647 -0.026058
v 0.023280 0.263983 -0.013432
v 0.028280 0.151877 -0.049362
v 0.056845 0.151846 -0.001066
v 0.028437 0.151895 0.048393
v -0.027935 0.152028 0.048320
v -0.054493 0.151912 -0.001399
v -0.026500 0.151956 -0.049503
v 0.001016 0.189659 -0.045672
v 0.038735 0.189601 -0.022759
v -0.036629 0.189632 -0.022817
v 0.000689 0.189696 0.044611
v -0.037548 0.189648 0.021330
v 0.038837 0.189625 0.021196
v 0.045956 0.074312 -0.078627
v 0.091292 0.074378 -0.001138
v 0.044854 0.074552 0.076631
v -0.043080 0.074270 0.076426
v -0.086594 0.074651 -0.001709
v -0.042708 0.073215 -0.079569
v -0.061028 0.113127 0.034798
v -0.061213 0.113173 -0.037384
v 0.063011 0.113098 0.035192
v 0.000644 0.113048 0.075089
v 0.001037 0.113081 -0.076066
v 0.064707 0.113062 -0.037697
v 0.067630 0.002149 -0.114055
v 0.132408 0.003161 -0.001684
v 0.065536 0.002680 0.113565
v -0.067186 0.002843 0.111712
v -0.129374 0.004577 -0.007861
v -0.101319 0.037373 -0.060423
v 0.005591 0.037189 -0.124431
v 0.001098 0.037599 0.125130
v -0.097825 0.037791 0.056718
v 0.108871 0.037584 -0.062909
v 0.097749 0.036142 0.062237
v 0.057161 0.037640 -0.096885
v 0.055483 0.037749 0.095485
v -0.108124 0.038081 -0.001906
v 0.113259 0.037054 -0.002486
v -0.053797 0.037696 0.095188
v 0.072702 0.113097 -0.001075
v -0.034998 0.113063 0.061245
v -0.034050 0.113028 -0.063107
v 0.036174 0.113085 -0.062880
v 0.036080 0.113089 0.061532
v -0.051186 0.027295 -0.106349
v 0.022245 0.189645 0.037271
v -0.041921 0.189624 -0.001111
v 0.044117 0.189608 -0.001061
v -0.021412 0.189694 0.037234
v -0.020233 0.189652 -0.038371
v -0.069268 0.113181 -0.001687
v 0.025278 0.264087 -0.000679
v -0.011024 0.264077 0.020339
v -0.010858 0.263509 -0.021495
v 0.013184 0.263837 -0.021540
v 0.013172 0.264169 0.020410
v -0.022960 0.263660 -0.000657
v 0.022223 0.189621 -0.038355
v 0.119974 0.019576 0.033995
v -0.016130 0.027595 -0.125526
v -0.014004 0.001741 -0.144552
v -0.075619 0.001775 -0.108884
v -0.048398 0.001741 -0.124696
v -0.130706 0.002435 0.019641
v -0.121391 0.018609 0.016898
v -0.051475 0.001742 0.121707
v -0.047695 0.023789 0.109505
v -0.011946 0.001745 0.144521
v -0.006021 0.017232 0.136762
v 0.001019 0.303873 -0.022395
v 0.019813 0.305527 -0.011536
v 0.019812 0.306435 0.010150
v 0.001035 0.306383 0.020988
v -0.017716 0.304902 0.010136
v -0.017750 0.303154 -0.011521
v 0.001106 0.232126 -0.039387
v 0.034361 0.231930 -0.019964
v 0.034270 0.231932 0.018516
v 0.000976 0.232176 0.038445
v -0.032375 0.232093 0.018465
v -0.031771 0.231963 -0.019786
v 0.000953 0.158888 -0.063372
v 0.053480 0.158671 -0.031391
v 0.053770 0.158505 0.029845
v 0.000579 0.158915 0.062664
v -0.052618 0.158471 0.029734
v -0.051495 0.158613 -0.031584
v 0.001602 0.082802 -0.100357
v 0.087397 0.082957 -0.050553
v 0.081305 0.082906 0.046575
v 0.000953 0.082858 0.099281
v -0.079072 0.082872 0.045487
v -0.081210 0.082878 -0.048861
v 0.008684 0.014419 -0.147422
v 0.131863 0.010613 -0.076145
v 0.115684 0.016546 0.076456
v 0.001930 0.010780 0.155127
v -0.128482 0.011296 0.075807
v -0.129454 0.011431 -0.075668
v 0.011043 0.305197 -0.018129
v 0.020948 0.306477 -0.000720
v 0.010964 0.306915 0.016496
v -0.009001 0.306173 0.016552
v -0.019235 0.304223 -0.000757
v -0.009171 0.303687 -0.018286
v 0.019764 0.231863 -0.033175
v 0.038603 0.231797 -0.000839
v 0.019783 0.231887 0.032113
v -0.018050 0.232020 0.031925
v -0.036257 0.231864 -0.000938
v -0.017504 0.231913 -0.033122
v -0.025266 0.268600 0.014532
v -0.024856 0.268088 -0.015648
v 0.027586 0.268758 0.014659
v 0.001080 0.268907 0.030208
v 0.001098 0.268389 -0.031014
v 0.027583 0.268635 -0.015931
v 0.030542 0.158589 -0.053094
v 0.061211 0.158551 -0.001047
v 0.030770 0.158524 0.052118
v -0.030313 0.158601 0.052040
v -0.058935 0.158409 -0.001462
v -0.028790 0.158637 -0.053232
v 0.001024 0.195800 -0.050237
v 0.042741 0.195500 -0.025106
v -0.040623 0.195615 -0.025131
v 0.000699 0.195876 0.049163
v -0.041602 0.195671 0.023510
v 0.042865 0.195544 0.023490
v 0.047763 0.082725 -0.081708
v 0.094849 0.082802 -0.000899
v 0.046867 0.082842 0.079666
v -0.045143 0.082512 0.079459
v -0.090277 0.082864 -0.001632
v -0.044621 0.081552 -0.082636
v -0.064712 0.120252 0.036817
v -0.064746 0.120612 -0.039396
v 0.066566 0.120415 0.037274
v 0.000628 0.120672 0.079070
v 0.001037 0.120797 -0.080003
v 0.068057 0.120884 -0.039666
v 0.069458 0.010553 -0.117130
v 0.135998 0.011542 -0.001667
v 0.067412 0.011369 0.116408
v -0.068960 0.011934 0.114301
v -0.132449 0.013757 -0.007922
v -0.103989 0.046534 -0.061977
v 0.005883 0.046116 -0.127670
v 0.001110 0.046759 0.128221
v -0.100460 0.047023 0.058229
v 0.111698 0.046481 -0.064558
v 0.100443 0.045044 0.064089
v 0.058915 0.046249 -0.099862
v 0.057355 0.046496 0.098287
v -0.111319 0.047091 -0.001826
v 0.116690 0.045698 -0.002323
v -0.055602 0.046593 0.097918
v 0.076734 0.120606 -0.000934
v -0.037305 0.120253 0.064723
v -0.036203 0.120437 -0.066571
v 0.038222 0.120644 -0.066330
v 0.038320 0.120393 0.064996
v -0.052896 0.036102 -0.109208
v 0.024671 0.195557 0.041224
v -0.046571 0.195494 -0.001213
v 0.048779 0.195444 -0.001084
v -0.023835 0.195711 0.041150
v -0.022632 0.195608 -0.042324
v -0.073447 0.120360 -0.001669
v 0.030306 0.268509 -0.000685
v -0.013604 0.268600 0.024628
v -0.013428 0.268026 -0.025792
v 0.015668 0.268335 -0.025892
v 0.015729 0.268634 0.024728
v -0.027975 0.268134 -0.000753
v 0.024627 0.195498 -0.042333
v 0.123251 0.028318 0.034791
v -0.017506 0.036308 -0.128626
v -0.015743 0.010217 -0.147630
v -0.077456 0.010807 -0.111480
v -0.050136 0.010217 -0.127773
v -0.133650 0.011761 0.020005
v -0.124335 0.027935 0.017262
v -0.053120 0.010497 0.124642
v -0.049341 0.032544 0.112440
v -0.013591 0.010500 0.147456
v -0.007666 0.025987 0.139697
vn 0.0582 -0.9962 0.0642
vn -0.4941 -0.2952 0.8178
vn -0.3151 -0.2953 0.9020
vn -0.3179 -0.3482 0.8819
vn -0.4852 -0.3518 0.8005
vn 0.9769 -0.2129 0.0186
vn 0.9656 -0.2102 -0.1532
vn 0.9544 -0.2412 -0.1759
vn 0.9693 -0.2449 0.0201
vn -0.4980 -0.2125 -0.8408
vn -0.6249 -0.2075 -0.7527
vn -0.6563 -0.2347 -0.7170
vn -0.5017 -0.2426 -0.8303
vn -0.4843 -0.2142 0.8483
vn -0.3383 -0.2139 0.9164
vn -0.3210 -0.2462 0.9145
vn -0.4928 -0.2443 0.8352
vn 0.5012 -0.2153 0.8381
vn 0.6407 -0.2107 0.7383
vn 0.6560 -0.2430 0.7146
vn 0.4997 -0.2494 0.8295
vn 0.5031 -0.2156 -0.8369
vn 0.3623 -0.2135 -0.9073
vn 0.3272 -0.2479 -0.9119
vn 0.5017 -0.2510 -0.8278
vn -0.9777 -0.2101 0.0011
vn -0.9646 -0.2087 0.1612
vn -0.9510 -0.2341 0.2020
vn -0.9713 -0.2377 0.0006
vn 0.9220 -0.3871 -0.0039
vn 0.8102 -0.3829 -0.4439
vn 0.7641 -0.4832 -0.4274
vn 0.8779 -0.4785 -0.0184
vn 0.4949 -0.3002 0.8154
vn 0.6564 -0.2917 0.6957
vn 0.6469 -0.3393 0.6829
vn 0.4903 -0.3496 0.7983
vn 0.5011 -0.3042 -0.8101
vn 0.3099 -0.3012 -0.9018
vn -0.0002 -0.3643 -0.9313
vn 0.5061 -0.3419 -0.7918
vn -0.9562 -0.2925 0.0048
vn -0.8240 -0.2966 0.4828
vn -0.8037 -0.3608 0.4732
vn -0.9363 -0.3513 -0.0041
vn 0.9553 -0.2947 0.0209
vn 0.8389 -0.3046 -0.4510
vn 0.8288 -0.3385 -0.4457
vn 0.9416 -0.3365 0.0132
vn -0.4994 -0.2974 -0.8137
vn -0.8295 -0.2978 -0.4724
vn -0.8126 -0.3475 -0.4679
vn -0.4981 -0.3459 -0.7952
vn 0.1653 -0.8746 0.4559
vn 0.5022 -0.5505 0.6669
vn -0.5518 -0.7842 -0.2839
vn 0.2270 -0.7664 -0.6009
vn -0.4982 -0.3971 -0.7708
vn -0.7915 -0.3981 -0.4636
vn -0.5976 -0.4722 -0.6480
vn -0.4832 -0.4861 -0.7282
vn -0.4637 -0.4183 0.7810
vn -0.3259 -0.4105 0.8516
vn -0.3468 -0.4985 0.7945
vn -0.4384 -0.4988 0.7477
vn 0.4826 -0.4057 0.7762
vn 0.6255 -0.3950 0.6728
vn 0.5719 -0.4793 0.6658
vn 0.4609 -0.4910 0.7392
vn 0.5094 -0.3880 -0.7681
vn 0.0036 -0.4238 -0.9057
vn 0.0017 -0.5327 -0.8463
vn 0.4930 -0.4813 -0.7248
vn -0.9097 -0.4140 -0.0318
vn -0.7736 -0.4414 0.4546
vn -0.8547 -0.5063 0.1146
vn -0.8640 -0.5001 -0.0579
vn 0.4594 -0.5533 -0.6948
vn -0.0031 -0.5866 -0.8099
vn -0.5414 -0.6923 0.4771
vn 0.1635 -0.5826 0.7962
vn 0.5912 -0.6003 0.5386
vn -0.7543 -0.6199 -0.2163
vn -0.6511 -0.7189 0.2435
vn 0.2348 -0.7621 0.6034
vn -0.8508 -0.5239 -0.0404
vn -0.8554 -0.5137 0.0655
vn 0.4489 -0.8575 -0.2514
vn 0.2908 -0.9219 0.2560
vn 0.8232 -0.5673 -0.0206
vn 0.8083 -0.5746 -0.1281
vn -0.5486 -0.7660 0.3351
vn -0.3730 -0.5902 -0.7159
vn -0.5231 -0.5986 -0.6067
vn -0.4472 -0.8551 0.2622
vn -0.4690 -0.5356 -0.7023
vn -0.5381 -0.5297 -0.6556
vn 0.5103 -0.8552 0.0912
vn 0.2150 -0.9495 0.2287
vn -0.4338 -0.5200 0.7358
vn -0.3895 -0.5173 0.7620
vn -0.3961 -0.7919 -0.4647
vn 0.0924 -0.9724 -0.2142
vn -0.4792 -0.5126 0.7125
vn -0.5203 -0.5044 0.6891
vn 0.8239 -0.5584 0.0965
vn 0.8626 -0.4824 0.1524
vn -0.7995 -0.5460 -0.2504
vn 0.1864 -0.9773 0.1008
vn -0.8438 -0.4868 -0.2260
vn 0.5230 -0.5658 -0.6375
vn 0.3217 -0.4069 0.8550
vn 0.3296 -0.5057 0.7973
vn 0.3133 -0.3487 0.8834
vn 0.2594 -0.5364 0.8031
vn 0.5040 -0.6595 0.5578
vn -0.3144 -0.2971 -0.9016
vn -0.3264 -0.2434 -0.9134
vn 0.9307 -0.2893 0.2240
vn 0.9168 -0.3348 0.2177
vn 0.9464 -0.2407 0.2155
vn -0.9517 -0.2331 -0.2000
vn 0.6576 -0.2466 -0.7119
vn 0.3126 -0.2979 0.9020
vn 0.3236 -0.2481 0.9131
vn 0.8999 -0.3897 0.1959
vn -0.9656 -0.2062 -0.1582
vn -0.9698 -0.2072 -0.1286
vn -0.9777 -0.2102 0.0016
vn -0.9683 -0.2095 0.1361
vn 0.6321 -0.2128 -0.7451
vn 0.6134 -0.2098 -0.7614
vn 0.5005 -0.2124 -0.8392
vn 0.3836 -0.2112 -0.8990
vn 0.3461 -0.2140 0.9135
vn 0.3609 -0.2091 0.9089
vn 0.4993 -0.2099 0.8406
vn 0.6272 -0.2057 0.7512
vn -0.6170 -0.2093 0.7586
vn -0.6448 -0.2357 0.7271
vn -0.5972 -0.2091 0.7743
vn -0.4817 -0.2119 0.8503
vn -0.3505 -0.2106 0.9126
vn -0.3579 -0.2125 -0.9093
vn -0.3791 -0.2115 -0.9008
vn -0.4940 -0.2116 -0.8434
vn -0.5998 -0.2082 -0.7726
vn 0.9590 -0.2097 0.1906
vn 0.9634 -0.2057 0.1718
vn 0.9778 -0.2091 0.0145
vn 0.9688 -0.2076 -0.1352
vn 0.8077 -0.4427 -0.3894
vn -0.6647 -0.7354 0.1320
vn -0.0539 0.9968 -0.0595
vn 0.4932 0.2956 -0.8182
vn 0.4843 0.3522 -0.8009
vn 0.3132 0.3481 -0.8836
vn 0.3094 0.2952 -0.9040
vn -0.9749 0.2220 -0.0177
vn -0.9692 0.2454 -0.0194
vn -0.9531 0.2411 0.1831
vn -0.9621 0.2185 0.1635
vn 0.4961 0.2223 0.8393
vn 0.5007 0.2432 0.8307
vn 0.6615 0.2346 0.7123
vn 0.6326 0.2164 0.7436
vn 0.4832 0.2235 -0.8465
vn 0.4922 0.2450 -0.8353
vn 0.3124 0.2461 -0.9175
vn 0.3261 0.2221 -0.9189
vn -0.4992 0.2242 -0.8370
vn -0.4986 0.2499 -0.8300
vn -0.6606 0.2429 -0.7104
vn -0.6465 0.2188 -0.7309
vn -0.5015 0.2251 0.8354
vn -0.5009 0.2515 0.8282
vn -0.3186 0.2477 0.9150
vn -0.3494 0.2219 0.9103
vn 0.9755 0.2198 -0.0016
vn 0.9712 0.2381 -0.0009
vn 0.9495 0.2339 -0.2090
vn 0.9606 0.2174 -0.1733
vn -0.9221 0.3869 0.0037
vn -0.8778 0.4786 0.0182
vn -0.7644 0.4827 0.4274
vn -0.8104 0.3824 0.4439
vn -0.4939 0.3006 -0.8159
vn -0.4895 0.3500 -0.7987
vn -0.6489 0.3392 -0.6811
vn -0.6590 0.2917 -0.6933
vn -0.5005 0.3046 0.8103
vn -0.5054 0.3422 0.7921
vn -0.0000 0.3637 0.9315
vn -0.3051 0.3011 0.9034
vn 0.9562 0.2927 -0.0050
vn 0.9362 0.3514 0.0038
vn 0.8041 0.3603 -0.4728
vn 0.8243 0.2962 -0.4825
vn -0.9552 0.2951 -0.0207
vn -0.9415 0.3367 -0.0131
vn -0.8289 0.3383 0.4456
vn -0.8390 0.3043 0.4510
vn 0.4983 0.2978 0.8142
vn 0.4969 0.3462 0.7958
vn 0.8128 0.3474 0.4676
vn 0.8298 0.2975 0.4721
vn -0.5301 0.2919 -0.7961
vn -0.2839 0.0495 -0.9576
vn -0.8717 0.0754 -0.4842
vn -0.5044 0.5512 -0.6646
vn 0.4971 0.3972 0.7714
vn 0.4820 0.4868 0.7285
vn 0.5990 0.4721 0.6468
vn 0.7918 0.3978 0.4634
vn 0.4630 0.4186 -0.7813
vn 0.4381 0.4997 -0.7473
vn 0.3428 0.4986 -0.7961
vn 0.3216 0.4103 -0.8534
vn -0.4819 0.4059 -0.7765
vn -0.4605 0.4918 -0.7390
vn -0.5741 0.4790 -0.6641
vn -0.6274 0.3948 -0.6712
vn -0.5086 0.3881 0.7686
vn -0.4920 0.4818 0.7251
vn -0.0017 0.5318 0.8469
vn -0.0038 0.4228 0.9062
vn 0.9097 0.4140 0.0314
vn 0.8638 0.5006 0.0574
vn 0.8542 0.5064 -0.1181
vn 0.7742 0.4407 -0.4543
vn -0.4573 0.5552 0.6947
vn -0.2602 0.0547 0.9640
vn -0.6962 -0.0013 0.7179
vn -0.8822 0.0416 0.4690
vn 0.0676 0.0447 0.9967
vn -0.1990 0.0622 0.9780
vn -0.1818 0.0078 0.9833
vn 0.0008 0.5882 0.8087
vn 0.8506 0.5244 0.0387
vn 0.9913 0.0237 0.1298
vn 0.8656 0.0364 -0.4994
vn 0.8547 0.5144 -0.0697
vn -0.8226 0.5682 0.0206
vn -0.9882 0.0727 0.1350
vn -0.9441 0.0686 -0.3225
vn -0.8806 0.0859 -0.4660
vn -0.8546 0.0861 0.5122
vn -0.8076 0.5751 0.1305
vn 0.4678 0.5370 0.7020
vn 0.5714 0.0583 0.8186
vn 0.8514 0.0463 0.5225
vn 0.5393 0.5305 0.6541
vn 0.4340 0.5211 -0.7349
vn 0.4984 0.0427 -0.8659
vn -0.0376 0.0094 -0.9992
vn 0.3860 0.5193 -0.7625
vn 0.4827 0.5132 -0.7096
vn 0.5236 0.5045 -0.6865
vn -0.8232 0.5589 -0.0997
vn -0.8622 0.4822 -0.1550
vn 0.7989 0.5459 0.2526
vn 0.9602 0.1088 0.2574
vn 0.8433 0.4871 0.2270
vn -0.5250 0.5661 0.6356
vn -0.3178 0.4067 -0.8565
vn -0.3256 0.5065 -0.7984
vn -0.3089 0.3486 -0.8849
vn -0.2535 0.5356 -0.8055
vn -0.1705 0.4332 -0.8850
vn 0.3092 0.2970 0.9034
vn 0.3177 0.2432 0.9165
vn -0.9299 0.2893 -0.2271
vn -0.9163 0.3346 -0.2200
vn -0.9450 0.2406 -0.2215
vn 0.9503 0.2329 0.2064
vn -0.6633 0.2465 0.7066
vn -0.3071 0.2978 -0.9039
vn -0.3152 0.2480 -0.9160
vn -0.8996 0.3893 -0.1981
vn 0.9619 0.2150 0.1689
vn 0.9639 0.2267 0.1400
vn 0.9731 0.2302 -0.0032
vn 0.9619 0.2288 -0.1496
vn -0.6403 0.2212 0.7356
vn -0.6215 0.2287 0.7493
vn -0.4989 0.2319 0.8351
vn -0.3696 0.2299 0.9003
vn -0.3346 0.2219 -0.9159
vn -0.3484 0.2266 -0.9095
vn -0.4963 0.2282 -0.8376
vn -0.6322 0.2236 -0.7418
vn 0.6249 0.2177 -0.7497
vn 0.6506 0.2357 -0.7219
vn 0.6042 0.2274 -0.7637
vn 0.4785 0.2308 -0.8472
vn 0.3368 0.2287 -0.9134
vn 0.3445 0.2213 0.9123
vn 0.3637 0.2310 0.9024
vn 0.4905 0.2318 0.8400
vn 0.6073 0.2279 0.7611
vn -0.9554 0.2179 -0.1995
vn -0.9576 0.2238 -0.1815
vn -0.9736 0.2278 -0.0146
vn -0.9633 0.2256 0.1457
vn 0.2951 0.0663 -0.9532
vn -0.7961 0.0121 -0.6051
vt 0.457846 0.370000
vt 0.457846 0.250000
vt 0.457846 0.130000
vt 0.353923 0.070000
vt 0.250000 0.010000
vt 0.146077 0.070000
vt 0.042154 0.130000
vt 0.042154 0.250000
vt 0.042154 0.370000
vt 0.146077 0.430000
vt 0.250000 0.490000
vt 0.353923 0.430000
vt 0.129256 0.420288
vt 0.238307 0.016751
vt 0.229479 0.021848
vt 0.167340 0.057724
vt 0.165620 0.058717
vt 0.042154 0.218170
vt 0.042154 0.219828
vt 0.457846 0.190243
vt 0.222811 0.474302
vt 0.226243 0.476284
vt 0.172177 0.445069
s 1
usemtl Pine_Tree_Odd
f 2/1/1 32/2/1 3/3/1 33/4/1 4/5/1 34/6/1 5/7/1 35/8/1 6/9/1 36/10/1 1/11/1 31/12/1
f 107/12/2 55/11/3 13/11/4 49/12/5
f 106/8/6 43/7/7 11/7/8 41/8/9
f 105/4/10 45/3/11 9/3/12 39/4/13
f 104/12/14 47/11/15 7/11/16 37/12/17
f 103/10/18 44/9/19 12/9/20 42/10/21
f 102/6/22 46/5/23 10/5/24 40/6/25
f 101/2/26 48/1/27 8/1/28 38/2/29
f 100/8/30 67/7/31 23/7/32 65/8/33
f 99/10/34 57/9/35 18/9/36 54/10/37
f 98/6/38 58/5/39 16/5/40 52/6/41
f 97/2/42 56/1/43 14/1/44 50/2/45
f 96/8/46 59/7/47 17/7/48 53/8/49
f 95/4/50 60/3/51 15/3/52 51/4/53
f 94/10/54 78/9/55 30/9/56 111/13/57
f 93/4/58 69/3/59 21/3/60 63/4/61
f 92/12/62 71/11/63 19/11/64 61/12/65
f 91/10/66 68/9/67 24/9/68 66/10/69
f 90/6/70 70/5/71 22/5/72 64/6/73
f 89/2/74 72/1/75 20/1/76 62/2/77
f 88/6/78 80/5/79 28/5/80 118/14/81 117/15/82 115/16/83 116/17/84 76/6/85
f 87/2/86 82/1/87 26/1/88 74/2/89
f 86/8/90 81/7/91 29/7/92 113/18/93 114/19/94 77/8/95
f 85/4/96 83/3/97 27/3/98 75/4/99
f 84/12/100 79/11/101 25/11/102 73/12/103
f 82/1/104 84/12/100 73/12/103 26/1/88
f 20/1/105 61/12/65 84/12/100 82/1/104
f 61/12/65 19/11/64 79/11/101 84/12/100
f 80/5/79 85/4/96 75/4/99 28/5/80
f 22/5/72 63/4/61 85/4/96 80/5/79
f 63/4/61 21/3/60 83/3/97 85/4/96
f 78/9/106 86/8/90 77/8/95 30/9/56
f 24/9/107 65/8/33 86/8/90 78/9/106
f 65/8/33 23/7/32 81/7/91 86/8/90
f 83/3/108 108/20/109 27/3/98
f 21/3/110 62/2/77 87/2/86 108/20/109 83/3/108
f 62/2/77 20/1/76 82/1/87 87/2/86
f 81/7/111 88/6/78 76/6/85 29/7/92
f 23/7/32 64/6/73 88/6/78 81/7/111
f 64/6/73 22/5/72 80/5/79 88/6/78
f 69/3/59 89/2/74 62/2/77 21/3/110
f 15/3/52 50/2/45 89/2/74 69/3/59
f 50/2/45 14/1/44 72/1/75 89/2/74
f 67/7/31 90/6/70 64/6/73 23/7/32
f 17/7/48 52/6/41 90/6/70 67/7/31
f 52/6/41 16/5/40 70/5/71 90/6/70
f 71/11/112 91/10/66 66/10/69 19/11/113
f 13/11/114 54/10/37 91/10/66 71/11/112
f 54/10/37 18/9/36 68/9/67 91/10/66
f 72/1/75 92/12/62 61/12/65 20/1/105
f 14/1/44 49/12/5 92/12/62 72/1/75
f 49/12/5 13/11/4 71/11/63 92/12/62
f 70/5/71 93/4/58 63/4/61 22/5/72
f 16/5/40 51/4/53 93/4/58 70/5/71
f 51/4/53 15/3/52 69/3/59 93/4/58
f 79/11/115 109/21/116 25/11/102
f 19/11/113 66/10/69 94/10/54 109/21/116 79/11/115
f 66/10/69 24/9/68 78/9/55 94/10/54
f 58/5/117 95/4/50 51/4/53 16/5/40
f 10/5/118 39/4/13 95/4/50 58/5/117
f 39/4/13 9/3/12 60/3/51 95/4/50
f 57/9/119 96/8/46 53/8/49 18/9/120
f 12/9/121 41/8/9 96/8/46 57/9/119
f 41/8/9 11/7/8 59/7/47 96/8/46
f 60/3/51 97/2/42 50/2/45 15/3/52
f 9/3/122 38/2/29 97/2/42 60/3/51
f 38/2/29 8/1/28 56/1/43 97/2/42
f 59/7/47 98/6/38 52/6/41 17/7/48
f 11/7/123 40/6/25 98/6/38 59/7/47
f 40/6/25 10/5/24 58/5/39 98/6/38
f 55/11/124 99/10/34 54/10/37 13/11/114
f 7/11/125 42/10/21 99/10/34 55/11/124
f 42/10/21 12/9/20 57/9/35 99/10/34
f 68/9/126 100/8/30 65/8/33 24/9/107
f 18/9/120 53/8/49 100/8/30 68/9/126
f 53/8/49 17/7/48 67/7/31 100/8/30
f 45/3/127 101/2/26 38/2/29 9/3/122
f 3/3/128 32/2/129 101/2/26 45/3/127
f 32/2/129 2/1/130 48/1/27 101/2/26
f 43/7/131 102/6/22 40/6/25 11/7/123
f 5/7/132 34/6/133 102/6/22 43/7/131
f 34/6/133 4/5/134 46/5/23 102/6/22
f 47/11/135 103/10/18 42/10/21 7/11/125
f 1/11/136 36/10/137 103/10/18 47/11/135
f 36/10/137 6/9/138 44/9/19 103/10/18
f 48/1/139 104/12/14 37/12/17 8/1/140
f 2/1/141 31/12/142 104/12/14 48/1/139
f 31/12/142 1/11/143 47/11/15 104/12/14
f 46/5/144 105/4/10 39/4/13 10/5/118
f 4/5/145 33/4/146 105/4/10 46/5/144
f 33/4/146 3/3/147 45/3/11 105/4/10
f 44/9/148 106/8/6 41/8/9 12/9/121
f 6/9/149 35/8/150 106/8/6 44/9/148
f 35/8/150 5/7/151 43/7/7 106/8/6
f 56/1/43 107/12/2 49/12/5 14/1/44
f 8/1/140 37/12/17 107/12/2 56/1/43
f 37/12/17 7/11/16 55/11/3 107/12/2
f 74/2/89 108/20/109 87/2/86
f 110/22/152 109/21/116 94/10/54 112/23/153
f 120/1/154 149/12/154 119/11/154 154/10/154 124/9/154 153/8/154 123/7/154 152/6/154 122/5/154 151/4/154 121/3/154 150/2/154
f 225/12/155 167/12/156 131/11/157 173/11/158
f 224/8/159 159/8/160 129/7/161 161/7/162
f 223/4/163 157/4/164 127/3/165 163/3/166
f 222/12/167 155/12/168 125/11/169 165/11/170
f 221/10/171 160/10/172 130/9/173 162/9/174
f 220/6/175 158/6/176 128/5/177 164/5/178
f 219/2/179 156/2/180 126/1/181 166/1/182
f 218/8/183 183/8/184 141/7/185 185/7/186
f 217/10/187 172/10/188 136/9/189 175/9/190
f 216/6/191 170/6/192 134/5/193 176/5/194
f 215/2/195 168/2/196 132/1/197 174/1/198
f 214/8/199 171/8/200 135/7/201 177/7/202
f 213/4/203 169/4/204 133/3/205 178/3/206
f 212/10/207 229/13/208 148/9/209 196/9/210
f 211/4/211 181/4/212 139/3/213 187/3/214
f 210/12/215 179/12/216 137/11/217 189/11/218
f 209/10/219 184/10/220 142/9/221 186/9/222
f 208/6/223 182/6/224 140/5/225 188/5/226
f 207/2/227 180/2/228 138/1/229 190/1/230
f 206/6/231 194/6/232 234/17/233 233/16/234 235/15/235 236/14/236 146/5/237 198/5/238
f 205/2/239 192/2/240 144/1/241 200/1/242
f 204/8/243 195/8/244 232/19/245 231/18/246 147/7/247 199/7/248
f 203/4/249 193/4/250 145/3/251 201/3/252
f 202/12/253 191/12/254 143/11/255 197/11/256
f 200/1/257 144/1/241 191/12/254 202/12/253
f 138/1/258 200/1/257 202/12/253 179/12/216
f 179/12/216 202/12/253 197/11/256 137/11/217
f 198/5/238 146/5/237 193/4/250 203/4/249
f 140/5/225 198/5/238 203/4/249 181/4/212
f 181/4/212 203/4/249 201/3/252 139/3/213
f 196/9/259 148/9/209 195/8/244 204/8/243
f 142/9/260 196/9/259 204/8/243 183/8/184
f 183/8/184 204/8/243 199/7/248 141/7/185
f 201/3/261 145/3/251 226/20/262
f 139/3/263 201/3/261 226/20/262 205/2/239 180/2/228
f 180/2/228 205/2/239 200/1/242 138/1/229
f 199/7/264 147/7/247 194/6/232 206/6/231
f 141/7/185 199/7/264 206/6/231 182/6/224
f 182/6/224 206/6/231 198/5/238 140/5/225
f 187/3/214 139/3/263 180/2/228 207/2/227
f 133/3/205 187/3/214 207/2/227 168/2/196
f 168/2/196 207/2/227 190/1/230 132/1/197
f 185/7/186 141/7/185 182/6/224 208/6/223
f 135/7/201 185/7/186 208/6/223 170/6/192
f 170/6/192 208/6/223 188/5/226 134/5/193
f 189/11/265 137/11/266 184/10/220 209/10/219
f 131/11/267 189/11/265 209/10/219 172/10/188
f 172/10/188 209/10/219 186/9/222 136/9/189
f 190/1/230 138/1/258 179/12/216 210/12/215
f 132/1/197 190/1/230 210/12/215 167/12/156
f 167/12/156 210/12/215 189/11/218 131/11/157
f 188/5/226 140/5/225 181/4/212 211/4/211
f 134/5/193 188/5/226 211/4/211 169/4/204
f 169/4/204 211/4/211 187/3/214 133/3/205
f 197/11/268 143/11/255 227/21/269
f 137/11/266 197/11/268 227/21/269 212/10/207 184/10/220
f 184/10/220 212/10/207 196/9/210 142/9/221
f 176/5/270 134/5/193 169/4/204 213/4/203
f 128/5/271 176/5/270 213/4/203 157/4/164
f 157/4/164 213/4/203 178/3/206 127/3/165
f 175/9/272 136/9/273 171/8/200 214/8/199
f 130/9/274 175/9/272 214/8/199 159/8/160
f 159/8/160 214/8/199 177/7/202 129/7/161
f 178/3/206 133/3/205 168/2/196 215/2/195
f 127/3/275 178/3/206 215/2/195 156/2/180
f 156/2/180 215/2/195 174/1/198 126/1/181
f 177/7/202 135/7/201 170/6/192 216/6/191
f 129/7/276 177/7/202 216/6/191 158/6/176
f 158/6/176 216/6/191 176/5/194 128/5/177
f 173/11/277 131/11/267 172/10/188 217/10/187
f 125/11/278 173/11/277 217/10/187 160/10/172
f 160/10/172 217/10/187 175/9/190 130/9/173
f 186/9/279 142/9/260 183/8/184 218/8/183
f 136/9/273 186/9/279 218/8/183 171/8/200
f 171/8/200 218/8/183 185/7/186 135/7/201
f 163/3/280 127/3/275 156/2/180 219/2/179
f 121/3/281 163/3/280 219/2/179 150/2/282
f 150/2/282 219/2/179 166/1/182 120/1/283
f 161/7/284 129/7/276 158/6/176 220/6/175
f 123/7/285 161/7/284 220/6/175 152/6/286
f 152/6/286 220/6/175 164/5/178 122/5/287
f 165/11/288 125/11/278 160/10/172 221/10/171
f 119/11/289 165/11/288 221/10/171 154/10/290
f 154/10/290 221/10/171 162/9/174 124/9/291
f 166/1/292 126/1/293 155/12/168 222/12/167
f 120/1/294 166/1/292 222/12/167 149/12/295
f 149/12/295 222/12/167 165/11/170 119/11/296
f 164/5/297 128/5/271 157/4/164 223/4/163
f 122/5/298 164/5/297 223/4/163 151/4/299
f 151/4/299 223/4/163 163/3/166 121/3/300
f 162/9/301 130/9/274 159/8/160 224/8/159
f 124/9/302 162/9/301 224/8/159 153/8/303
f 153/8/303 224/8/159 161/7/162 123/7/304
f 174/1/198 132/1/197 167/12/156 225/12/155
f 126/1/293 174/1/198 225/12/155 155/12/168
f 155/12/168 225/12/155 173/11/158 125/11/169
f 192/2/240 205/2/239 226/20/262
f 228/22/305 230/23/306 212/10/207 227/21/269
f 73/12/103 25/11/102 143/11/255 191/12/254
f 74/2/89 26/1/88 144/1/241 192/2/240
f 75/4/99 27/3/98 145/3/251 193/4/250
f 113/18/93 29/7/92 147/7/247 231/18/246
f 111/13/57 30/9/56 148/9/209 229/13/208
f 26/1/88 73/12/103 191/12/254 144/1/241
f 28/5/80 75/4/99 193/4/250 146/5/237
f 29/7/92 76/6/85 194/6/232 147/7/247
f 30/9/56 77/8/95 195/8/244 148/9/209
f 27/3/98 108/20/109 226/20/262 145/3/251
f 108/20/109 74/2/89 192/2/240 226/20/262
f 25/11/102 109/21/116 227/21/269 143/11/255
f 109/21/116 110/22/152 228/22/305 227/21/269
f 110/22/152 112/23/153 230/23/306 228/22/305
f 94/10/54 111/13/57 229/13/208 212/10/207
f 112/23/153 94/10/54 212/10/207 230/23/306
f 77/8/95 114/19/94 232/19/245 195/8/244
f 114/19/94 113/18/93 231/18/246 232/19/245
f 76/6/85 116/17/84 234/17/233 194/6/232
f 116/17/84 115/16/83 233/16/234 234/17/233
f 115/16/83 117/15/82 235/15/235 233/16/234
f 118/14/81 28/5/80 146/5/237 236/14/236
f 117/15/82 118/14/81 236/14/236 235/15/235
