# Blender 4.1.0
# www.blender.org
mtllib other.mtl
o other
v 0.031641 -0.000000 -0.035281
v -0.019256 -0.000000 -0.087124
v 0.495969 -0.000000 -0.491141
v 0.445071 -0.000000 -0.542984
v 0.041002 -0.000000 -0.002177
v -0.031650 -0.000000 -0.002177
v 0.041002 -0.000000 -2.477188
v -0.031650 -0.000000 -2.477188
v 0.028558 -0.000000 -0.087168
v -0.022244 -0.000000 -0.035232
v -0.436604 -0.000000 -0.542177
v -0.487406 -0.000000 -0.490241
v 0.028558 -0.000000 -0.534201
v -0.022244 -0.000000 -0.482265
v -0.436604 -0.000000 -0.989210
v -0.487406 -0.000000 -0.937274
v 0.031641 -0.000000 -0.482314
v -0.019256 -0.000000 -0.534157
v 0.495969 -0.000000 -0.938174
v 0.445071 -0.000000 -0.990017
v 0.028558 -0.000000 -1.030448
v -0.022244 -0.000000 -0.978512
v -0.436604 -0.000000 -1.485457
v -0.487406 -0.000000 -1.433521
v 0.031641 -0.000000 -0.978562
v -0.019256 -0.000000 -1.030404
v 0.495969 -0.000000 -1.434422
v 0.445071 -0.000000 -1.486264
v 0.028558 -0.000000 -1.596417
v -0.022244 -0.000000 -1.544481
v -0.436604 -0.000000 -2.051426
v -0.487406 -0.000000 -1.999490
v 0.031641 -0.000000 -1.544530
v -0.019256 -0.000000 -1.596373
v 0.495969 -0.000000 -2.000390
v 0.445071 -0.000000 -2.052233
v 0.032659 -0.000000 -2.068057
v -0.018143 -0.000000 -2.016121
v -0.432503 -0.000000 -2.523066
v -0.483305 -0.000000 -2.471130
v 0.035742 -0.000000 -2.016171
v -0.015155 -0.000000 -2.068013
v 0.500070 -0.000000 -2.472030
v 0.449173 -0.000000 -2.523873
v 0.028558 -0.000000 -2.478179
v -0.022244 -0.000000 -2.426243
v -0.436604 -0.000000 -2.933188
v -0.487406 -0.000000 -2.881252
v 0.031641 -0.000000 -2.426292
v -0.019256 -0.000000 -2.478135
v 0.495969 -0.000000 -2.882153
v 0.445071 -0.000000 -2.933995
vn -0.0000 1.0000 -0.0000
vt 0.000000 0.000000
vt 0.000000 1.000000
vt 1.000000 1.000000
vt 1.000000 0.000000
s 0
g other_defaultMat.004
usemtl defaultMat.004
f 1/1/1 3/2/1 4/3/1 2/4/1
f 5/1/1 7/2/1 8/3/1 6/4/1
f 9/1/1 11/2/1 12/3/1 10/4/1
f 13/1/1 15/2/1 16/3/1 14/4/1
f 17/1/1 19/2/1 20/3/1 18/4/1
f 21/1/1 23/2/1 24/3/1 22/4/1
f 25/1/1 27/2/1 28/3/1 26/4/1
f 29/1/1 31/2/1 32/3/1 30/4/1
f 33/1/1 35/2/1 36/3/1 34/4/1
f 37/1/1 39/2/1 40/3/1 38/4/1
f 41/1/1 43/2/1 44/3/1 42/4/1
f 45/1/1 47/2/1 48/3/1 46/4/1
f 49/1/1 51/2/1 52/3/1 50/4/1
