# Blender 4.1.0
# www.blender.org
mtllib oval.mtl
o oval
v 0.000000 0.000000 -2.028585
v -0.073731 0.000000 -2.009370
v -0.144628 0.000000 -1.952465
v -0.209968 0.000000 -1.860055
v -0.267238 0.000000 -1.735692
v -0.314239 0.000000 -1.584155
v -0.349163 0.000000 -1.411269
v -0.370670 0.000000 -1.223675
v -0.377932 0.000000 -1.028585
v -0.370670 0.000000 -0.833495
v -0.349163 0.000000 -0.645902
v -0.314239 0.000000 -0.473015
v -0.267238 0.000000 -0.321478
v -0.209968 0.000000 -0.197116
v -0.144628 0.000000 -0.104706
v -0.073731 0.000000 -0.047800
v 0.000000 0.000000 -0.028585
v 0.073731 0.000000 -0.047800
v 0.144628 0.000000 -0.104706
v 0.209968 0.000000 -0.197116
v 0.267238 0.000000 -0.321478
v 0.314239 0.000000 -0.473015
v 0.349163 0.000000 -0.645902
v 0.370670 0.000000 -0.833495
v 0.377932 0.000000 -1.028585
v 0.370670 0.000000 -1.223675
v 0.349163 0.000000 -1.411269
v 0.314239 0.000000 -1.584155
v 0.267238 0.000000 -1.735692
v 0.209968 0.000000 -1.860055
v 0.144628 0.000000 -1.952465
v 0.073731 0.000000 -2.009370
vn -0.0000 1.0000 -0.0000
vt 0.000000 0.000000
s 0
g oval_defaultMat.003
usemtl defaultMat.003
f 2/1/1 3/1/1 4/1/1 5/1/1 6/1/1 7/1/1 8/1/1 9/1/1 10/1/1 11/1/1 12/1/1 13/1/1 14/1/1 15/1/1 16/1/1 17/1/1 18/1/1 19/1/1 20/1/1 21/1/1 22/1/1 23/1/1 24/1/1 25/1/1 26/1/1 27/1/1 28/1/1 29/1/1 30/1/1 31/1/1 32/1/1 1/1/1
