# Blender 4.1.0
# www.blender.org
mtllib default_tree.mtl
o Cone
v 0.000000 1.461480 -1.000000
v 0.195090 1.461480 -0.980785
v 0.382683 1.461480 -0.923880
v 0.555570 1.461480 -0.831470
v 0.707107 1.461480 -0.707107
v 0.831470 1.461480 -0.555570
v 0.923880 1.461480 -0.382683
v 0.980785 1.461480 -0.195090
v 1.000000 1.461480 0.000000
v 0.980785 1.461480 0.195090
v 0.923880 1.461480 0.382683
v 0.831470 1.461480 0.555570
v 0.707107 1.461480 0.707107
v 0.555570 1.461480 0.831470
v 0.382683 1.461480 0.923880
v 0.195090 1.461480 0.980785
v 0.000000 1.461480 1.000000
v -0.195090 1.461480 0.980785
v -0.382683 1.461480 0.923880
v -0.555570 1.461480 0.831470
v -0.707107 1.461480 0.707107
v -0.831470 1.461480 0.555570
v -0.923880 1.461480 0.382683
v -0.980785 1.461480 0.195090
v -1.000000 1.461480 0.000000
v -0.980785 1.461480 -0.195090
v -0.923880 1.461480 -0.382683
v -0.831470 1.461480 -0.555570
v -0.707107 1.461480 -0.707107
v -0.555570 1.461480 -0.831470
v -0.382683 1.461480 -0.923880
v -0.195090 1.461480 -0.980785
v 0.000000 3.461480 0.000000
v 0.000000 -0.032552 -0.304475
v 0.000000 1.967448 -0.304475
v 0.061789 -0.032552 -0.298389
v 0.061789 1.967448 -0.298389
v 0.121204 -0.032552 -0.280366
v 0.121204 1.967448 -0.280366
v 0.175961 -0.032552 -0.251098
v 0.175961 1.967448 -0.251098
v 0.223956 -0.032552 -0.211710
v 0.223956 1.967448 -0.211710
v 0.263344 -0.032552 -0.163715
v 0.263344 1.967448 -0.163715
v 0.292612 -0.032552 -0.108958
v 0.292612 1.967448 -0.108958
v 0.310636 -0.032552 -0.049543
v 0.310636 1.967448 -0.049543
v 0.316721 -0.032552 0.012246
v 0.316721 1.967448 0.012246
v 0.310636 -0.032552 0.074035
v 0.310636 1.967448 0.074035
v 0.292612 -0.032552 0.133450
v 0.292612 1.967448 0.133450
v 0.263344 -0.032552 0.188207
v 0.263344 1.967448 0.188207
v 0.223956 -0.032552 0.236202
v 0.223956 1.967448 0.236202
v 0.175961 -0.032552 0.275590
v 0.175961 1.967448 0.275590
v 0.121204 -0.032552 0.304859
v 0.121204 1.967448 0.304859
v 0.061789 -0.032552 0.322882
v 0.061789 1.967448 0.322882
v 0.000000 -0.032552 0.328968
v 0.000000 1.967448 0.328968
v -0.061789 -0.032552 0.322882
v -0.061789 1.967448 0.322882
v -0.121204 -0.032552 0.304859
v -0.121204 1.967448 0.304859
v -0.175961 -0.032552 0.275590
v -0.175961 1.967448 0.275590
v -0.223956 -0.032552 0.236202
v -0.223956 1.967448 0.236202
v -0.263344 -0.032552 0.188207
v -0.263344 1.967448 0.188207
v -0.292612 -0.032552 0.133450
v -0.292612 1.967448 0.133450
v -0.310636 -0.032552 0.074035
v -0.310636 1.967448 0.074035
v -0.316721 -0.032552 0.012246
v -0.316721 1.967448 0.012246
v -0.310636 -0.032552 -0.049543
v -0.310636 1.967448 -0.049543
v -0.292612 -0.032552 -0.108958
v -0.292612 1.967448 -0.108958
v -0.263344 -0.032552 -0.163715
v -0.263344 1.967448 -0.163715
v -0.223956 -0.032552 -0.211710
v -0.223956 1.967448 -0.211710
v -0.175961 -0.032552 -0.251098
v -0.175961 1.967448 -0.251098
v -0.121204 -0.032552 -0.280366
v -0.121204 1.967448 -0.280366
v -0.061789 -0.032552 -0.298389
v -0.061789 1.967448 -0.298389
v 0.044086 2.752351 -0.762618
v 0.192866 2.752351 -0.747964
v 0.335927 2.752351 -0.704567
v 0.467774 2.752351 -0.634094
v 0.583338 2.752351 -0.539252
v 0.678180 2.752351 -0.423688
v 0.748653 2.752351 -0.291841
v 0.792050 2.752351 -0.148779
v 0.806704 2.752351 -0.000000
v 0.792050 2.752351 0.148779
v 0.748653 2.752351 0.291841
v 0.678180 2.752351 0.423688
v 0.583338 2.752351 0.539252
v 0.467774 2.752351 0.634093
v 0.335927 2.752351 0.704567
v 0.192866 2.752351 0.747964
v 0.044086 2.752351 0.762618
v -0.104693 2.752351 0.747964
v -0.247755 2.752351 0.704567
v -0.379601 2.752351 0.634093
v -0.495166 2.752351 0.539252
v -0.590007 2.752351 0.423688
v -0.660481 2.752351 0.291841
v -0.703878 2.752351 0.148779
v -0.718531 2.752351 -0.000000
v -0.703878 2.752351 -0.148779
v -0.660481 2.752351 -0.291841
v -0.590007 2.752351 -0.423688
v -0.495166 2.752351 -0.539252
v -0.379601 2.752351 -0.634094
v -0.247755 2.752351 -0.704567
v -0.104693 2.752351 -0.747964
v 0.044086 4.139793 -0.000000
vn 0.0878 0.4455 -0.8910
vn 0.2599 0.4455 -0.8567
vn 0.4220 0.4455 -0.7896
vn 0.5680 0.4455 -0.6921
vn 0.6921 0.4455 -0.5680
vn 0.7896 0.4455 -0.4220
vn 0.8567 0.4455 -0.2599
vn 0.8910 0.4455 -0.0878
vn 0.8910 0.4455 0.0878
vn 0.8567 0.4455 0.2599
vn 0.7896 0.4455 0.4220
vn 0.6921 0.4455 0.5680
vn 0.5680 0.4455 0.6921
vn 0.4220 0.4455 0.7896
vn 0.2599 0.4455 0.8567
vn 0.0878 0.4455 0.8910
vn -0.0878 0.4455 0.8910
vn -0.2599 0.4455 0.8567
vn -0.4220 0.4455 0.7896
vn -0.5680 0.4455 0.6921
vn -0.6921 0.4455 0.5680
vn -0.7896 0.4455 0.4220
vn -0.8567 0.4455 0.2599
vn -0.8910 0.4455 0.0878
vn -0.8910 0.4455 -0.0878
vn -0.8567 0.4455 -0.2599
vn -0.7896 0.4455 -0.4220
vn -0.6921 0.4455 -0.5680
vn -0.5680 0.4455 -0.6921
vn -0.4220 0.4455 -0.7896
vn -0.0000 -1.0000 -0.0000
vn -0.2599 0.4455 -0.8567
vn -0.0878 0.4455 -0.8910
vn 0.0980 -0.0000 -0.9952
vn 0.2903 -0.0000 -0.9569
vn 0.4714 -0.0000 -0.8819
vn 0.6344 -0.0000 -0.7730
vn 0.7730 -0.0000 -0.6344
vn 0.8819 -0.0000 -0.4714
vn 0.9569 -0.0000 -0.2903
vn 0.9952 -0.0000 -0.0980
vn 0.9952 -0.0000 0.0980
vn 0.9569 -0.0000 0.2903
vn 0.8819 -0.0000 0.4714
vn 0.7730 -0.0000 0.6344
vn 0.6344 -0.0000 0.7730
vn 0.4714 -0.0000 0.8819
vn 0.2903 -0.0000 0.9569
vn 0.0980 -0.0000 0.9952
vn -0.0980 -0.0000 0.9952
vn -0.2903 -0.0000 0.9569
vn -0.4714 -0.0000 0.8819
vn -0.6344 -0.0000 0.7730
vn -0.7730 -0.0000 0.6344
vn -0.8819 -0.0000 0.4714
vn -0.9569 -0.0000 0.2903
vn -0.9952 -0.0000 0.0980
vn -0.9952 -0.0000 -0.0980
vn -0.9569 -0.0000 -0.2903
vn -0.8819 -0.0000 -0.4714
vn -0.7730 -0.0000 -0.6344
vn -0.6344 -0.0000 -0.7730
vn -0.4714 -0.0000 -0.8819
vn -0.0000 1.0000 -0.0000
vn -0.2903 -0.0000 -0.9569
vn -0.0980 -0.0000 -0.9952
vn 0.0860 0.4799 -0.8731
vn 0.2547 0.4799 -0.8395
vn 0.4136 0.4799 -0.7737
vn 0.5566 0.4799 -0.6782
vn 0.6782 0.4799 -0.5566
vn 0.7737 0.4799 -0.4136
vn 0.8395 0.4799 -0.2547
vn 0.8731 0.4799 -0.0860
vn 0.8731 0.4799 0.0860
vn 0.8395 0.4799 0.2547
vn 0.7737 0.4799 0.4136
vn 0.6782 0.4799 0.5566
vn 0.5566 0.4799 0.6782
vn 0.4136 0.4799 0.7737
vn 0.2547 0.4799 0.8395
vn 0.0860 0.4799 0.8731
vn -0.0860 0.4799 0.8731
vn -0.2547 0.4799 0.8395
vn -0.4136 0.4799 0.7737
vn -0.5566 0.4799 0.6782
vn -0.6782 0.4799 0.5566
vn -0.7737 0.4799 0.4136
vn -0.8395 0.4799 0.2547
vn -0.8731 0.4799 0.0860
vn -0.8731 0.4799 -0.0860
vn -0.8395 0.4799 -0.2547
vn -0.7737 0.4799 -0.4136
vn -0.6782 0.4799 -0.5566
vn -0.5566 0.4799 -0.6782
vn -0.4136 0.4799 -0.7737
vn -0.2547 0.4799 -0.8395
vn -0.0860 0.4799 -0.8731
vt 0.250000 0.490000
vt 0.250000 0.250000
vt 0.296822 0.485388
vt 0.341844 0.471731
vt 0.383337 0.449553
vt 0.419706 0.419706
vt 0.449553 0.383337
vt 0.471731 0.341844
vt 0.485388 0.296822
vt 0.490000 0.250000
vt 0.485388 0.203178
vt 0.471731 0.158156
vt 0.449553 0.116663
vt 0.419706 0.080294
vt 0.383337 0.050447
vt 0.341844 0.028269
vt 0.296822 0.014612
vt 0.250000 0.010000
vt 0.203178 0.014612
vt 0.158156 0.028269
vt 0.116663 0.050447
vt 0.080294 0.080294
vt 0.050447 0.116663
vt 0.028269 0.158156
vt 0.014612 0.203178
vt 0.010000 0.250000
vt 0.014612 0.296822
vt 0.028269 0.341844
vt 0.050447 0.383337
vt 0.080294 0.419706
vt 0.116663 0.449553
vt 0.158156 0.471731
vt 0.750000 0.490000
vt 0.796822 0.485388
vt 0.841844 0.471731
vt 0.883337 0.449553
vt 0.919706 0.419706
vt 0.949553 0.383337
vt 0.971731 0.341844
vt 0.985388 0.296822
vt 0.990000 0.250000
vt 0.985388 0.203178
vt 0.971731 0.158156
vt 0.949553 0.116663
vt 0.919706 0.080294
vt 0.883337 0.050447
vt 0.841844 0.028269
vt 0.796822 0.014612
vt 0.750000 0.010000
vt 0.703178 0.014612
vt 0.658156 0.028269
vt 0.616663 0.050447
vt 0.580294 0.080294
vt 0.550447 0.116663
vt 0.528269 0.158156
vt 0.514612 0.203178
vt 0.510000 0.250000
vt 0.514612 0.296822
vt 0.528269 0.341844
vt 0.550447 0.383337
vt 0.580294 0.419706
vt 0.616663 0.449553
vt 0.658156 0.471731
vt 0.703178 0.485388
vt 0.203178 0.485388
vt 1.000000 0.500000
vt 1.000000 1.000000
vt 0.968750 1.000000
vt 0.968750 0.500000
vt 0.937500 1.000000
vt 0.937500 0.500000
vt 0.906250 1.000000
vt 0.906250 0.500000
vt 0.875000 1.000000
vt 0.875000 0.500000
vt 0.843750 1.000000
vt 0.843750 0.500000
vt 0.812500 1.000000
vt 0.812500 0.500000
vt 0.781250 1.000000
vt 0.781250 0.500000
vt 0.750000 1.000000
vt 0.750000 0.500000
vt 0.718750 1.000000
vt 0.718750 0.500000
vt 0.687500 1.000000
vt 0.687500 0.500000
vt 0.656250 1.000000
vt 0.656250 0.500000
vt 0.625000 1.000000
vt 0.625000 0.500000
vt 0.593750 1.000000
vt 0.593750 0.500000
vt 0.562500 1.000000
vt 0.562500 0.500000
vt 0.531250 1.000000
vt 0.531250 0.500000
vt 0.500000 1.000000
vt 0.500000 0.500000
vt 0.468750 1.000000
vt 0.468750 0.500000
vt 0.437500 1.000000
vt 0.437500 0.500000
vt 0.406250 1.000000
vt 0.406250 0.500000
vt 0.375000 1.000000
vt 0.375000 0.500000
vt 0.343750 1.000000
vt 0.343750 0.500000
vt 0.312500 1.000000
vt 0.312500 0.500000
vt 0.281250 1.000000
vt 0.281250 0.500000
vt 0.250000 1.000000
vt 0.250000 0.500000
vt 0.218750 1.000000
vt 0.218750 0.500000
vt 0.187500 1.000000
vt 0.187500 0.500000
vt 0.156250 1.000000
vt 0.156250 0.500000
vt 0.125000 1.000000
vt 0.125000 0.500000
vt 0.093750 1.000000
vt 0.093750 0.500000
vt 0.062500 1.000000
vt 0.062500 0.500000
vt 0.031250 1.000000
vt 0.031250 0.500000
vt 0.000000 1.000000
vt 0.000000 0.500000
s 0
f 1/1/1 33/2/1 2/3/1
f 2/3/2 33/2/2 3/4/2
f 3/4/3 33/2/3 4/5/3
f 4/5/4 33/2/4 5/6/4
f 5/6/5 33/2/5 6/7/5
f 6/7/6 33/2/6 7/8/6
f 7/8/7 33/2/7 8/9/7
f 8/9/8 33/2/8 9/10/8
f 9/10/9 33/2/9 10/11/9
f 10/11/10 33/2/10 11/12/10
f 11/12/11 33/2/11 12/13/11
f 12/13/12 33/2/12 13/14/12
f 13/14/13 33/2/13 14/15/13
f 14/15/14 33/2/14 15/16/14
f 15/16/15 33/2/15 16/17/15
f 16/17/16 33/2/16 17/18/16
f 17/18/17 33/2/17 18/19/17
f 18/19/18 33/2/18 19/20/18
f 19/20/19 33/2/19 20/21/19
f 20/21/20 33/2/20 21/22/20
f 21/22/21 33/2/21 22/23/21
f 22/23/22 33/2/22 23/24/22
f 23/24/23 33/2/23 24/25/23
f 24/25/24 33/2/24 25/26/24
f 25/26/25 33/2/25 26/27/25
f 26/27/26 33/2/26 27/28/26
f 27/28/27 33/2/27 28/29/27
f 28/29/28 33/2/28 29/30/28
f 29/30/29 33/2/29 30/31/29
f 30/31/30 33/2/30 31/32/30
f 1/33/31 2/34/31 3/35/31 4/36/31 5/37/31 6/38/31 7/39/31 8/40/31 9/41/31 10/42/31 11/43/31 12/44/31 13/45/31 14/46/31 15/47/31 16/48/31 17/49/31 18/50/31 19/51/31 20/52/31 21/53/31 22/54/31 23/55/31 24/56/31 25/57/31 26/58/31 27/59/31 28/60/31 29/61/31 30/62/31 31/63/31 32/64/31
f 31/32/32 33/2/32 32/65/32
f 32/65/33 33/2/33 1/1/33
f 34/66/34 35/67/34 37/68/34 36/69/34
f 36/69/35 37/68/35 39/70/35 38/71/35
f 38/71/36 39/70/36 41/72/36 40/73/36
f 40/73/37 41/72/37 43/74/37 42/75/37
f 42/75/38 43/74/38 45/76/38 44/77/38
f 44/77/39 45/76/39 47/78/39 46/79/39
f 46/79/40 47/78/40 49/80/40 48/81/40
f 48/81/41 49/80/41 51/82/41 50/83/41
f 50/83/42 51/82/42 53/84/42 52/85/42
f 52/85/43 53/84/43 55/86/43 54/87/43
f 54/87/44 55/86/44 57/88/44 56/89/44
f 56/89/45 57/88/45 59/90/45 58/91/45
f 58/91/46 59/90/46 61/92/46 60/93/46
f 60/93/47 61/92/47 63/94/47 62/95/47
f 62/95/48 63/94/48 65/96/48 64/97/48
f 64/97/49 65/96/49 67/98/49 66/99/49
f 66/99/50 67/98/50 69/100/50 68/101/50
f 68/101/51 69/100/51 71/102/51 70/103/51
f 70/103/52 71/102/52 73/104/52 72/105/52
f 72/105/53 73/104/53 75/106/53 74/107/53
f 74/107/54 75/106/54 77/108/54 76/109/54
f 76/109/55 77/108/55 79/110/55 78/111/55
f 78/111/56 79/110/56 81/112/56 80/113/56
f 80/113/57 81/112/57 83/114/57 82/115/57
f 82/115/58 83/114/58 85/116/58 84/117/58
f 84/117/59 85/116/59 87/118/59 86/119/59
f 86/119/60 87/118/60 89/120/60 88/121/60
f 88/121/61 89/120/61 91/122/61 90/123/61
f 90/123/62 91/122/62 93/124/62 92/125/62
f 92/125/63 93/124/63 95/126/63 94/127/63
f 37/3/64 35/1/64 97/65/64 95/32/64 93/31/64 91/30/64 89/29/64 87/28/64 85/27/64 83/26/64 81/25/64 79/24/64 77/23/64 75/22/64 73/21/64 71/20/64 69/19/64 67/18/64 65/17/64 63/16/64 61/15/64 59/14/64 57/13/64 55/12/64 53/11/64 51/10/64 49/9/64 47/8/64 45/7/64 43/6/64 41/5/64 39/4/64
f 94/127/65 95/126/65 97/128/65 96/129/65
f 96/129/66 97/128/66 35/130/66 34/131/66
f 34/33/31 36/34/31 38/35/31 40/36/31 42/37/31 44/38/31 46/39/31 48/40/31 50/41/31 52/42/31 54/43/31 56/44/31 58/45/31 60/46/31 62/47/31 64/48/31 66/49/31 68/50/31 70/51/31 72/52/31 74/53/31 76/54/31 78/55/31 80/56/31 82/57/31 84/58/31 86/59/31 88/60/31 90/61/31 92/62/31 94/63/31 96/64/31
f 98/1/67 130/2/67 99/3/67
f 99/3/68 130/2/68 100/4/68
f 100/4/69 130/2/69 101/5/69
f 101/5/70 130/2/70 102/6/70
f 102/6/71 130/2/71 103/7/71
f 103/7/72 130/2/72 104/8/72
f 104/8/73 130/2/73 105/9/73
f 105/9/74 130/2/74 106/10/74
f 106/10/75 130/2/75 107/11/75
f 107/11/76 130/2/76 108/12/76
f 108/12/77 130/2/77 109/13/77
f 109/13/78 130/2/78 110/14/78
f 110/14/79 130/2/79 111/15/79
f 111/15/80 130/2/80 112/16/80
f 112/16/81 130/2/81 113/17/81
f 113/17/82 130/2/82 114/18/82
f 114/18/83 130/2/83 115/19/83
f 115/19/84 130/2/84 116/20/84
f 116/20/85 130/2/85 117/21/85
f 117/21/86 130/2/86 118/22/86
f 118/22/87 130/2/87 119/23/87
f 119/23/88 130/2/88 120/24/88
f 120/24/89 130/2/89 121/25/89
f 121/25/90 130/2/90 122/26/90
f 122/26/91 130/2/91 123/27/91
f 123/27/92 130/2/92 124/28/92
f 124/28/93 130/2/93 125/29/93
f 125/29/94 130/2/94 126/30/94
f 126/30/95 130/2/95 127/31/95
f 127/31/96 130/2/96 128/32/96
f 98/33/31 99/34/31 100/35/31 101/36/31 102/37/31 103/38/31 104/39/31 105/40/31 106/41/31 107/42/31 108/43/31 109/44/31 110/45/31 111/46/31 112/47/31 113/48/31 114/49/31 115/50/31 116/51/31 117/52/31 118/53/31 119/54/31 120/55/31 121/56/31 122/57/31 123/58/31 124/59/31 125/60/31 126/61/31 127/62/31 128/63/31 129/64/31
f 128/32/97 130/2/97 129/65/97
f 129/65/98 130/2/98 98/1/98
